<?xml version="1.0" encoding="utf-8"?>
<!-- Generator: Adobe Illustrator 27.3.1, SVG Export Plug-In . SVG Version: 6.00 Build 0)  -->
<svg version="1.1" id="Layer_1" xmlns="http://www.w3.org/2000/svg" xmlns:xlink="http://www.w3.org/1999/xlink" x="0px" y="0px"
	 viewBox="0 0 46 46" style="enable-background:new 0 0 46 46;" xml:space="preserve">
<style type="text/css">
	.st0{fill:#FFFFFF;}
</style>
<g>
	<path class="st0" d="M24,28.6c-0.3,0-2.2,0.1-3.8,0.5c-0.8,0.3-3.1,1.2-3.1,3.8c0,2.6,2.4,4.5,6.3,4.5c3.5,0,5.3-1.7,5.3-4
		c0-1.8-1.2-2.8-3.9-4.8C24.6,28.6,24.4,28.6,24,28.6z"/>
	<path class="st0" d="M22.3,12.2c-1,0-2,0.5-2.5,1.3c-0.6,0.8-0.8,1.7-0.8,2.7c0,2.4,1.4,6.5,4.5,6.5c1,0,1.9-0.4,2.5-1
		c0.8-0.9,0.9-2.1,0.9-2.7C26.9,16.3,25.3,12.2,22.3,12.2z"/>
	<path class="st0" d="M40,0H6C2.7,0,0,2.7,0,6v34c0,3.3,2.7,6,6,6h34c3.3,0,6-2.7,6-6V6C46,2.7,43.3,0,40,0z M36,16.9v6
		c0,1.1-0.9,2-2,2s-2-0.9-2-2v-6c0-0.7,0.4-1.4,1-1.7v-3.7l-3.6,3.1c0.4,0.7,0.6,1.6,0.6,2.6c0,2.8-1.5,4.1-3,5.3
		c-0.4,0.5-1,1-1,1.8s0.6,1.3,1,1.6l1.3,1c1.6,1.3,3,2.6,3,5.1c0,3.4-3.3,6.9-9.5,6.9c-5.3,0-7.8-2.5-7.8-5.2c0-1.3,0.7-3.2,2.8-4.5
		c2.2-1.4,5.3-1.6,6.9-1.7c-0.5-0.7-1.1-1.4-1.1-2.5c0-0.6,0.2-0.9,0.4-1.4c-0.4,0.1-0.8,0.1-1.2,0.1c-3.8,0-6-2.9-6-5.7H9l10-9h17
		l-1,0.9V10v5.2C35.6,15.5,36,16.2,36,16.9z"/>
</g>
</svg>
