<?xml version="1.0" encoding="utf-8"?>
<!-- Generator: Adobe Illustrator 27.3.1, SVG Export Plug-In . SVG Version: 6.00 Build 0)  -->
<svg version="1.1" xmlns="http://www.w3.org/2000/svg" xmlns:xlink="http://www.w3.org/1999/xlink" x="0px" y="0px"
	 viewBox="0 0 276.9 276.9" style="enable-background:new 0 0 276.9 276.9;" xml:space="preserve">
<style type="text/css">
	.st0{display:none;}
	.st1{fill:#FFFFFF;}
	.st2{fill:#8E8E8E;}
</style>
<g id="Layer_3">
</g>
<g id="Layer_2" class="st0">
	
		<image style="display:inline;overflow:visible;" width="354" height="354" xlink:href="3DB064BC03896B5B.png"  transform="matrix(1 0 0 1 -38.5039 -38.4515)">
	</image>
</g>
<g id="Layer_1">
	<path class="st1" d="M254.9,0H22C9.9,0,0,9.9,0,22v232.9c0,12.1,9.9,22,22,22h232.9c12.1,0,22-9.9,22-22V22
		C276.9,9.9,267,0,254.9,0z M200.6,46.2c15.8,0,28.5,12.8,28.5,28.5s-12.8,28.5-28.5,28.5S172,90.5,172,74.7S184.8,46.2,200.6,46.2z
		 M23.7,135.4c0-15.8,12.8-28.5,28.5-28.5s28.5,12.8,28.5,28.5S68,163.9,52.3,163.9S23.7,151.1,23.7,135.4z M77.7,225.5
		c-15.8,0-28.5-12.8-28.5-28.5s12.8-28.5,28.5-28.5s28.5,12.8,28.5,28.5S93.4,225.5,77.7,225.5z M78,103
		c-15.8,0-28.5-12.8-28.5-28.5S62.2,45.9,78,45.9s28.5,12.8,28.5,28.5S93.7,103,78,103z M138.4,251.2c-15.8,0-28.5-12.8-28.5-28.5
		s12.8-28.5,28.5-28.5s28.5,12.8,28.5,28.5C166.9,238.5,154.2,251.2,138.4,251.2z M139.6,77.6c-15.8,0-28.5-12.8-28.5-28.5
		s12.8-28.5,28.5-28.5s28.5,12.8,28.5,28.5S155.4,77.6,139.6,77.6z M200,225.8c-15.8,0-28.5-12.8-28.5-28.5
		c0-15.8,12.8-28.5,28.5-28.5s28.5,12.8,28.5,28.5S215.8,225.8,200,225.8z M226,164.9c-15.8,0-28.5-12.8-28.5-28.5
		s12.8-28.5,28.5-28.5s28.5,12.8,28.5,28.5S241.7,164.9,226,164.9z"/>
	<g>
		<path class="st2" d="M106.6,74.4c-0.1,15.5-12.5,28-27.9,28.3c3.6,5.8,10.1,9.8,17.4,9.8c11.3,0,20.5-9.2,20.5-20.5
			C116.6,84.5,112.6,78,106.6,74.4z"/>
		<circle class="st2" cx="139.6" cy="74.1" r="20.5"/>
		<circle class="st2" cx="77.2" cy="135.4" r="20.5"/>
		<path class="st2" d="M200.6,103.4c-15.5-0.1-28-12.5-28.3-27.9c-5.8,3.6-9.8,10.1-9.8,17.4c0,11.3,9.2,20.5,20.5,20.5
			C190.5,113.4,197,109.3,200.6,103.4z"/>
		<circle class="st2" cx="200.9" cy="136.3" r="20.5"/>
		<path class="st2" d="M171.4,197.3c0.1-15.5,12.5-28,27.9-28.3c-3.6-5.8-10.1-9.8-17.4-9.8c-11.3,0-20.5,9.2-20.5,20.5
			C161.3,187.2,165.4,193.7,171.4,197.3z"/>
		<circle class="st2" cx="138.4" cy="197.6" r="20.5"/>
		<path class="st2" d="M77.7,168.4c15.5,0.1,28,12.5,28.3,27.9c5.8-3.6,9.8-10.1,9.8-17.4c0-11.3-9.2-20.5-20.5-20.5
			C87.8,158.3,81.3,162.4,77.7,168.4z"/>
	</g>
</g>
</svg>
